<?xml version="1.0" encoding="UTF-8" standalone="no"?>
<svg
   xmlns:dc="http://purl.org/dc/elements/1.1/"
   xmlns:cc="http://creativecommons.org/ns#"
   xmlns:rdf="http://www.w3.org/1999/02/22-rdf-syntax-ns#"
   xmlns:svg="http://www.w3.org/2000/svg"
   xmlns="http://www.w3.org/2000/svg"
   xmlns:sodipodi="http://sodipodi.sourceforge.net/DTD/sodipodi-0.dtd"
   xmlns:inkscape="http://www.inkscape.org/namespaces/inkscape"
   width="200.5mm"
   height="100.5mm"
   viewBox="0 0 200.5 100.5"
   version="1.1"
   id="svg8"
   sodipodi:docname="jljou.svg"
   inkscape:version="1.0.2 (e86c870879, 2021-01-15)">
  <defs
     id="defs2" />
  <sodipodi:namedview
     id="base"
     pagecolor="#ffffff"
     bordercolor="#666666"
     borderopacity="1.0"
     inkscape:pageopacity="0.0"
     inkscape:pageshadow="2"
     inkscape:zoom="1"
     inkscape:cx="348.26462"
     inkscape:cy="148.59877"
     inkscape:document-units="mm"
     inkscape:current-layer="layer1"
     inkscape:document-rotation="0"
     showgrid="false"
     inkscape:snap-bbox="true"
     inkscape:snap-text-baseline="true"
     inkscape:snap-global="false"
     inkscape:window-width="1600"
     inkscape:window-height="851"
     inkscape:window-x="0"
     inkscape:window-y="0"
     inkscape:window-maximized="1" />
  <metadata
     id="metadata5">
    <rdf:RDF>
      <cc:Work
         rdf:about="">
        <dc:format>image/svg+xml</dc:format>
        <dc:type
           rdf:resource="http://purl.org/dc/dcmitype/StillImage" />
      </cc:Work>
    </rdf:RDF>
  </metadata>
  <g
     inkscape:label="Layer 1"
     inkscape:groupmode="layer"
     id="layer1"
     transform="translate(-8.0756397,-42.768959)">
    <rect
       style="fill:#ffffff;stroke:#d7eef4;stroke-width:0.5;stroke-miterlimit:4;stroke-dasharray:4, 0.50000000000000000;stroke-dashoffset:0"
       id="rect867-4"
       width="100"
       height="100"
       x="108.32564"
       y="43.018959" />
    <rect
       style="fill:#ffffff;stroke:#d7eef4;stroke-width:0.5;stroke-miterlimit:4;stroke-dasharray:4, 0.50000000000000000;stroke-dashoffset:0"
       id="rect867"
       width="100"
       height="100"
       x="8.3256397"
       y="43.018959" />
    <g
       aria-label="杰"
       transform="matrix(0.98697324,0,0,1.0131987,0,0.94144117)"
       id="text835"
       style="font-size:32.4051px;line-height:1.25;font-family:'Liberation Sans';-inkscape-font-specification:'Liberation Sans';stroke-width:0.810127">
      <path
         d="m 38.230898,79.727067 c 0,2.754434 -1.847091,4.76355 -3.629371,5.508868 -0.680507,0.356456 -1.134179,0.972153 -0.842533,1.685065 0.324051,0.745317 1.555445,0.712912 2.560003,0.162025 1.52304,-0.842532 3.434941,-3.1757 2.462788,-7.355958 z m 4.860765,0.291646 c 0.777723,1.814686 1.425825,4.504309 1.296204,6.643046 1.847091,2.106332 4.309879,-2.462788 -0.842532,-6.772666 z m 6.09216,0 c 1.361014,1.749876 3.110889,4.569119 3.402535,6.707856 2.268357,1.814686 4.050638,-3.1757 -3.013674,-6.902286 z m 6.643045,-0.03241 c 2.106332,1.749876 4.731145,4.76355 5.379247,7.193933 2.495193,1.71747 3.953423,-3.985828 -4.990385,-7.485579 z M 62.243079,64.65869 c 0.453671,0 0.745317,-0.162026 0.842532,-0.518482 -1.134178,-1.069368 -2.981269,-2.495193 -2.981269,-2.495193 l -1.620255,2.041522 h -9.041024 v -4.471904 c 0.874938,-0.09722 1.166584,-0.453672 1.231394,-0.939748 l -3.402535,-0.388861 v 5.800513 H 33.856209 l 0.291646,0.972153 H 45.619261 C 43.091663,69.58427 38.68457,74.28301 33.240512,77.3939 l 0.324051,0.486076 c 5.930134,-2.657218 10.693684,-6.578235 13.707359,-11.341785 v 12.184318 h 0.421266 c 0.874938,0 1.749875,-0.388861 1.749875,-0.648102 V 64.658695 h 0.06481 c 2.462787,5.865323 6.902286,10.337227 12.022292,12.735205 0.324051,-1.069368 1.134179,-1.782281 2.041522,-1.847091 l 0.06481,-0.356456 C 58.419277,73.472883 53.137245,69.45465 50.253191,64.658695 Z"
         style="font-style:normal;font-variant:normal;font-weight:normal;font-stretch:normal;font-family:'Noto Serif CJK SC';-inkscape-font-specification:'Noto Serif CJK SC';stroke-width:0.810127"
         id="path862" />
    </g>
    <text
       xml:space="preserve"
       style="font-size:7.77535px;line-height:1.25;font-family:'Liberation Sans';-inkscape-font-specification:'Liberation Sans';stroke-width:0.194384"
       x="69.426628"
       y="94.150047"
       id="text841"><tspan
         sodipodi:role="line"
         id="tspan839"
         x="69.426628"
         y="94.150047"
         style="font-style:normal;font-variant:normal;font-weight:bold;font-stretch:normal;font-family:'Liberation Sans';-inkscape-font-specification:'Liberation Sans Bold';stroke-width:0.194384">jieli</tspan></text>
    <text
       xml:space="preserve"
       style="font-size:4.18767px;line-height:1.25;font-family:'Liberation Sans';-inkscape-font-specification:'Liberation Sans';stroke-width:0.104692"
       x="65.606865"
       y="99.599976"
       id="text841-2"><tspan
         sodipodi:role="line"
         id="tspan839-5"
         x="65.606865"
         y="99.599976"
         style="font-style:normal;font-variant:normal;font-weight:bold;font-stretch:normal;font-family:'Liberation Sans';-inkscape-font-specification:'Liberation Sans Bold';stroke-width:0.104692">technology</tspan></text>
    <g
       aria-label="理"
       transform="matrix(0.94429545,0,0,1.0589906,0,-1.0036033)"
       id="text873"
       style="font-size:33.4067px;line-height:1.25;font-family:'Liberation Sans';-inkscape-font-specification:'Liberation Sans';stroke-width:0.835168">
      <path
         d="m 46.554451,109.17422 c -1.703742,0.60132 -3.44089,1.20264 -5.011005,1.77055 v -8.75255 h 3.908584 c 0.467693,0 0.768354,-0.16703 0.835167,-0.53451 -0.901981,-0.93539 -2.472096,-2.338467 -2.472096,-2.338467 l -1.336268,1.937587 h -0.935387 v -8.117826 h 4.342871 c 0.467693,0 0.80176,-0.133627 0.868574,-0.501101 -1.035608,-1.035608 -2.83957,-2.405282 -2.83957,-2.405282 l -1.536708,1.970995 h -7.249254 l 0.233847,0.935388 h 4.042211 v 8.117826 h -4.175838 l 0.233847,0.93539 h 3.941991 v 9.4875 c -2.071216,0.66814 -3.741551,1.23605 -4.710345,1.4699 l 1.069015,2.73935 c 0.334067,-0.13363 0.60132,-0.4677 0.70154,-0.83517 4.376278,-2.20484 7.783761,-4.10903 10.289264,-5.41189 z m 2.605722,-5.01101 v -5.578914 h 5.077819 v 5.578914 z m 5.077819,-12.126627 v 5.545512 h -5.077819 v -5.545512 z m 7.549914,0 v 5.545512 H 56.37602 V 92.036583 Z M 56.37602,104.16321 v -5.578914 h 5.411886 v 5.578914 z m 5.545513,12.9618 H 56.37602 v -5.87957 h 7.750355 c 0.467694,0 0.801761,-0.16704 0.868574,-0.53451 -1.035608,-1.03561 -2.772756,-2.43869 -2.772756,-2.43869 l -1.570115,1.97099 H 56.37602 v -5.11122 h 5.411886 v 1.46989 h 0.334067 c 0.701541,0 1.770555,-0.56791 1.803962,-0.80176 V 92.47087 c 0.668134,-0.133627 1.202641,-0.400881 1.436488,-0.668134 L 62.689887,89.73152 61.453839,91.067788 H 49.327207 l -2.305063,-1.069014 v 17.237856 h 0.367474 c 0.901981,0 1.770555,-0.46769 1.770555,-0.73495 v -1.36967 h 5.077819 v 5.11122 h -7.349474 l 0.267253,1.00221 h 7.082221 v 5.87957 H 43.581254 l 0.267254,0.93539 H 65.59627 c 0.467694,0 0.768354,-0.16703 0.868574,-0.5011 -1.069014,-1.06901 -2.93979,-2.53891 -2.93979,-2.53891 z"
         style="font-style:normal;font-variant:normal;font-weight:normal;font-stretch:normal;font-family:'Noto Serif CJK SC';-inkscape-font-specification:'Noto Serif CJK SC';stroke-width:0.835168"
         id="path865" />
    </g>
    <g
       aria-label="日"
       transform="scale(1.0243473,0.97623141)"
       id="text835-1"
       style="font-size:31.2228px;line-height:1.25;font-family:'Liberation Sans';-inkscape-font-specification:'Liberation Sans';stroke-width:0.780569">
      <path
         d="M 134.61849,88.866944 V 78.78198 h 14.54983 v 10.084964 z m 14.54983,-20.669493 v 9.679068 h -14.54983 v -9.679068 z m 0.90546,-2.279264 -1.21769,1.373803 h -14.05026 l -2.24804,-1.092798 v 26.352043 h 0.34345 c 0.9679,0 1.71725,-0.530788 1.71725,-0.843016 v -1.935813 h 14.54983 v 2.622715 h 0.31222 c 0.78057,0 1.7797,-0.593233 1.81093,-0.811793 V 68.572125 c 0.62445,-0.124891 1.12402,-0.343451 1.34258,-0.593233 z"
         style="font-style:normal;font-variant:normal;font-weight:normal;font-stretch:normal;font-family:'Noto Serif CJK SC';-inkscape-font-specification:'Noto Serif CJK SC';stroke-width:0.780569"
         id="path859" />
    </g>
    <text
       xml:space="preserve"
       style="font-size:7.77535px;line-height:1.25;font-family:'Liberation Sans';-inkscape-font-specification:'Liberation Sans';stroke-width:0.194384"
       x="162.43816"
       y="94.150047"
       id="text841-0"><tspan
         sodipodi:role="line"
         id="tspan839-56"
         x="162.43816"
         y="94.150047"
         style="font-style:normal;font-variant:normal;font-weight:bold;font-stretch:normal;font-family:'Liberation Sans';-inkscape-font-specification:'Liberation Sans Bold';stroke-width:0.194384">nichijou</tspan></text>
    <text
       xml:space="preserve"
       style="font-size:4.23994px;line-height:1.25;font-family:'Liberation Sans';-inkscape-font-specification:'Liberation Sans';stroke-width:0.105999"
       x="164.85693"
       y="100.30845"
       id="text841-2-7"><tspan
         sodipodi:role="line"
         id="tspan839-5-7"
         x="164.85693"
         y="100.30845"
         style="font-style:normal;font-variant:normal;font-weight:bold;font-stretch:normal;font-family:'Liberation Sans';-inkscape-font-specification:'Liberation Sans Bold';stroke-width:0.105999">arawi keiichi</tspan></text>
    <g
       aria-label="常"
       transform="scale(0.97981887,1.0205968)"
       id="text873-0"
       style="font-size:32.1956px;line-height:1.25;font-family:'Liberation Sans';-inkscape-font-specification:'Liberation Sans';stroke-width:0.804889">
      <path
         d="m 138.78114,93.293394 c 1.32002,1.062455 2.67223,3.058582 2.83321,4.668362 2.15711,1.577585 3.96006,-3.058582 -2.47906,-4.925926 z m 3.41273,9.980636 h 11.78359 v 4.08884 h -11.78359 z m 13.9407,8.33866 h -7.11523 v -3.34834 h 4.95812 v 1.25563 h 0.32196 c 0.64391,0 1.73856,-0.48294 1.77076,-0.67611 v -5.24788 c 0.54732,-0.0966 1.03026,-0.35416 1.22343,-0.57952 l -2.51126,-1.86735 -1.09465,1.19124 h -11.33285 l -2.22149,-0.99807 v 8.53184 h 0.32195 c 0.83709,0 1.73856,-0.48294 1.73856,-0.67611 v -0.93367 h 4.73276 v 3.34834 h -7.01864 l -2.2537,-1.03026 v 10.14161 h 0.32196 c 0.83709,0 1.73856,-0.48293 1.73856,-0.6761 v -7.46938 h 7.21182 v 9.4655 h 0.32195 c 1.09465,0 1.77076,-0.6761 1.77076,-0.83708 v -8.62842 h 7.43718 v 4.92592 c 0,0.41855 -0.16097,0.61172 -0.7405,0.61172 -0.77269,0 -3.96005,-0.22537 -3.96005,-0.22537 v 0.48294 c 1.4488,0.16097 2.25369,0.48293 2.73662,0.80489 0.41855,0.32195 0.57952,0.86928 0.64391,1.51319 3.02639,-0.28976 3.38054,-1.35222 3.38054,-2.962 v -4.76494 c 0.67611,-0.12879 1.22343,-0.38635 1.41661,-0.61172 l -2.73663,-1.99613 z m 4.18543,-14.455824 -1.35222,1.416607 h -6.31034 c 1.54539,-1.191238 3.09078,-2.704431 4.12104,-3.863472 0.61172,0.128782 1.09465,-0.128783 1.25563,-0.450739 l -3.21956,-1.320019 c -0.7727,1.674171 -2.02832,3.960058 -3.05858,5.63423 h -2.67224 v -4.700558 c 0.7405,-0.09659 1.06246,-0.418543 1.12685,-0.869281 l -3.25176,-0.354152 v 5.923991 h -9.04696 c -0.0644,-0.482934 -0.16098,-0.998064 -0.28976,-1.545389 h -0.57952 c 0.0644,2.189301 -1.15904,4.217626 -2.44687,4.990316 -0.67611,0.38635 -1.09465,1.06246 -0.77269,1.73856 0.38635,0.7405 1.54539,0.67611 2.31808,0.0644 0.90148,-0.64392 1.80295,-2.12491 1.80295,-4.314215 h 21.05593 c -0.38635,1.094655 -0.93368,2.446865 -1.38441,3.316145 l 0.45073,0.25757 c 1.15905,-0.80489 2.70443,-2.1893 3.54152,-3.219563 0.64391,-0.0322 0.99806,-0.06439 1.22343,-0.321956 z"
         style="font-style:normal;font-variant:normal;font-weight:normal;font-stretch:normal;font-family:'Noto Serif CJK SC';-inkscape-font-specification:'Noto Serif CJK SC';stroke-width:0.804889"
         id="path856" />
    </g>
  </g>
</svg>
